<svg width="106" height="56" viewBox="0 0 106 56" fill="none" xmlns="http://www.w3.org/2000/svg">
<path d="M88 25.5C88 27.9853 85.9853 30 83.5 30C81.0147 30 79 27.9853 79 25.5C79 23.0147 81.0147 21 83.5 21" stroke="#FFFFFF" stroke-width="5" stroke-linecap="round" stroke-linejoin="round"/>
<path d="M46.0057 23.5C46.3721 21.3151 49.6206 19.9016 52.4412 20.6126C54.3943 21.0949 56.3774 23.0335 56.5095 26C56.6417 28.9666 55.0011 31 52.5063 31.4999" stroke="#FFFFFF" stroke-width="5" stroke-linecap="round" stroke-linejoin="round"/>
<path d="M88 24.5C88 26.9853 90.0147 29 92.5 29C94.9853 29 97 26.9853 97 24.5C97 22.0147 94.9853 20 92.5 20" stroke="#FFFFFF" stroke-width="5" stroke-linecap="round" stroke-linejoin="round"/>
<path d="M72.4999 26.5274C72.4999 29.0127 70.4852 31.0273 68 31.0273C65.5148 31.0273 63.5001 29.0127 63.5001 26.5274C63.5001 24.0422 65.5148 22.0275 68 22.0275C70.4852 22.0275 72.4999 24.0422 72.4999 26.5274Z" stroke="#FFFFFF" stroke-width="5"/>
<path d="M44 6C50.9818 9.55759 43.7057 24.6727 45.6973 32" stroke="#FFFFFF" stroke-width="5" stroke-linecap="round" stroke-linejoin="round"/>
<path d="M38.2121 12.4286C38.2121 12.4286 39.2344 5 30.0338 5C20.8333 5 20.8333 18 29.0116 18H32.0784C42.3013 18 40.2567 31 32.0784 31C23.9001 31 23.9001 26.3571 23.9001 25.4286" stroke="#FFFFFF" stroke-width="5" stroke-linecap="round" stroke-linejoin="round"/>
<path d="M3 2.99947C5.94304 2.1698 8.59461 2.34732 11.4998 3.99983C18.6241 8.05227 9.46905 24.1308 11.5012 32.4772M103 34.9959C91.3344 39.8177 26.5795 41.5156 16.001 36.4802" stroke="#FFFFFF" stroke-width="5" stroke-linecap="round" stroke-linejoin="round"/>
<circle cx="91.499" cy="48.4996" r="4.49994" stroke="#FFFFFF" stroke-width="5"/>
<path d="M27.0009 48.4957C27.0009 50.9809 24.9862 52.9956 22.5009 52.9956C20.0157 52.9956 18.001 50.9809 18.001 48.4957C18.001 46.0104 20.0157 43.9957 22.5009 43.9957" stroke="#FFFFFF" stroke-width="5" stroke-linecap="round" stroke-linejoin="round"/>
</svg>
